<?xml version="1.0" encoding="UTF-8"?>
<svg version="1.1" xmlns="http://www.w3.org/2000/svg" width="84" height="88">
<path d="M0 0 C4.86108919 2.29796944 7.70203056 5.13891081 10 10 C10.87281825 15.4000531 10.94803875 20.31585355 7.875 25 C4.67810991 28.71337929 1.54708962 30.66759026 -3.39453125 31.3125 C-9.12143923 31.58725421 -12.56119562 30.91037529 -17 27 C-20.76997315 23.43380918 -21.75885601 20.31359199 -22.09375 15.2734375 C-21.91586142 10.95963947 -20.55278077 7.59407813 -17.53125 4.4921875 C-11.82706495 -0.4011085 -7.33933142 -0.73704743 0 0 Z M-15 9 C-16.93624439 13.27587302 -17.23247687 15.22507711 -15.875 19.75 C-13.6677345 23.70587915 -13.6677345 23.70587915 -10 26 C-4.69314269 26.50541498 -1.26885828 26.51553035 3 23 C5.56632517 19.57823311 5.36435051 16.15359579 5 12 C3.34860695 8.4613006 2.28394771 7.18929847 -1 5 C-6.68290968 4.08477485 -11.11680875 4.41077398 -15 9 Z " fill="#6E6E6E" transform="translate(45,13)"/>
<path d="M0 0 C4.39206471 3.60529721 6.07626238 6.97056463 6.734375 12.50390625 C6.83413057 13.87781246 6.92321214 15.25274182 6.984375 16.62890625 C5.664375 16.95890625 4.344375 17.28890625 2.984375 17.62890625 C2.76523437 16.96503906 2.54609375 16.30117187 2.3203125 15.6171875 C-0.08620852 8.91610256 -2.40822866 4.88396588 -9.05078125 1.6328125 C-15.60247327 -0.96706529 -21.62524354 -0.8370731 -28.28515625 1.38671875 C-33.06530756 3.49743491 -35.59468564 5.88014058 -38.015625 10.62890625 C-38.83011611 12.95535499 -39.43886413 15.22573597 -40.015625 17.62890625 C-41.335625 17.29890625 -42.655625 16.96890625 -44.015625 16.62890625 C-44.58073507 11.20384953 -43.7316949 8.05591611 -40.62890625 3.5546875 C-29.97782946 -9.15955186 -12.98294633 -9.28952194 0 0 Z " fill="#707070" transform="translate(58.015625,53.37109375)"/>
<path d="M0 0 C5.46341492 2.67814457 9.38479779 5.35378937 12 11 C12.6459877 14.00503907 12.92343085 16.93027322 13 20 C11.68 20.33 10.36 20.66 9 21 C8.78085937 20.33613281 8.56171875 19.67226562 8.3359375 18.98828125 C6.15712935 12.92127481 4.29421931 9.68293517 -1 6 C-1.66 5.34 -2.32 4.68 -3 4 C-2.01 2.68 -1.02 1.36 0 0 Z " fill="#6C6C6C" transform="translate(52,50)"/>
<path d="M0 0 C1.22589844 0.01353516 1.22589844 0.01353516 2.4765625 0.02734375 C3.41628906 0.04474609 3.41628906 0.04474609 4.375 0.0625 C3.715 0.7225 3.055 1.3825 2.375 2.0625 C2.705 2.7225 3.035 3.3825 3.375 4.0625 C1.93945975 4.56809908 0.5014798 5.0667749 -0.9375 5.5625 C-2.13826172 5.98015625 -2.13826172 5.98015625 -3.36328125 6.40625 C-5.625 7.0625 -5.625 7.0625 -8.625 7.0625 C-10.77528304 8.01228897 -10.77528304 8.01228897 -12.625 9.0625 C-12.28532174 5.89216958 -11.62630809 5.06367393 -9.1875 2.875 C-5.75699698 0.44854665 -4.13997551 -0.05914251 0 0 Z " fill="#767676" transform="translate(38.625,12.9375)"/>
<path d="M0 0 C0.804375 0.639375 1.60875 1.27875 2.4375 1.9375 C6.35851307 4.59852326 10.36642801 4.79406347 15 5 C11.93793752 7.93447654 9.08246123 8.74116732 4.97265625 9.140625 C1.73626069 8.90991165 0.12024263 7.31901538 -2 5 C-2 4.34 -2 3.68 -2 3 C-1.34 3 -0.68 3 0 3 C0 2.01 0 1.02 0 0 Z " fill="#757575" transform="translate(29,34)"/>
<path d="M0 0 C-0.99 0.8971875 -0.99 0.8971875 -2 1.8125 C-4.3373846 3.87501834 -4.3373846 3.87501834 -4 7 C-5.65 7.66 -7.3 8.32 -9 9 C-9.375 6.25 -9.375 6.25 -9 3 C-4 -1.33333333 -4 -1.33333333 0 0 Z " fill="#686868" transform="translate(30,50)"/>
<path d="M0 0 C-0.99 0.33 -1.98 0.66 -3 1 C-3.33 1.33 -3.66 1.66 -4 2 C-4 2.99 -4 3.98 -4 5 C-6.31 4.34 -8.62 3.68 -11 3 C-10.01 2.34 -9.02 1.68 -8 1 C-9.65 0.67 -11.3 0.34 -13 0 C-13 -0.33 -13 -0.66 -13 -1 C-7.96488101 -2.0070238 -4.76052962 -1.97387813 0 0 Z " fill="#656565" transform="translate(49,15)"/>
<path d="M0 0 C0.99 0 1.98 0 3 0 C3 1.65 3 3.3 3 5 C1.68 5.33 0.36 5.66 -1 6 C-1.042721 4.33388095 -1.04063832 2.66617115 -1 1 C-0.67 0.67 -0.34 0.34 0 0 Z " fill="#6B6B6B" transform="translate(16,65)"/>
<path d="M0 0 C0.33 0 0.66 0 1 0 C1 1.98 1 3.96 1 6 C-0.32 6.33 -1.64 6.66 -3 7 C-2.38722388 4.03824877 -1.74627478 2.61941217 0 0 Z " fill="#5C5C5C" transform="translate(64,64)"/>
<path d="M0 0 C0.99 0.66 1.98 1.32 3 2 C1.68 3.32 0.36 4.64 -1 6 C-1.66 5.34 -2.32 4.68 -3 4 C-2.01 2.68 -1.02 1.36 0 0 Z " fill="#606060" transform="translate(52,50)"/>
</svg>
