<?xml version="1.0" encoding="UTF-8"?>
<svg version="1.1" xmlns="http://www.w3.org/2000/svg" width="84" height="88">
<path d="M0 0 C7.21649485 4.43298969 7.21649485 4.43298969 9 8 C9.59915835 13.31539049 10.03892147 17.57519342 6.8125 22 C5.884375 22.66 4.95625 23.32 4 24 C3.21625 24.598125 2.4325 25.19625 1.625 25.8125 C-1.93783546 27.4242589 -4.11206694 27.52717736 -8 27 C-11.76994807 25.15600366 -15.03281344 22.96718656 -18 20 C-18.7497642 14.21497725 -19.2196735 8.7936375 -15.875 3.875 C-6.85329104 -2.00872324 -6.85329104 -2.00872324 0 0 Z M-8.875 5.375 C-9.57625 5.91125 -10.2775 6.4475 -11 7 C-8.8900216 9.25590249 -8.8900216 9.25590249 -6 11 C-2.71895528 10.37963682 -2.71895528 10.37963682 0 9 C0 8.01 0 7.02 0 6 C-4.41147142 3.98468286 -4.41147142 3.98468286 -8.875 5.375 Z M-13 12 C-13.33397787 14.87413125 -13.33397787 14.87413125 -13 18 C-11.2322188 19.95158486 -11.2322188 19.95158486 -9 21 C-8.34 21 -7.68 21 -7 21 C-7 19.02 -7 17.04 -7 15 C-8.98 14.01 -10.96 13.02 -13 12 Z M-2 15 C-2.41746608 18.12635209 -2.41746608 18.12635209 -2 21 C-0.02 20.01 1.96 19.02 4 18 C4 16.02 4 14.04 4 12 C1.52023698 12 -0.13604817 13.5661909 -2 15 Z " fill="#707070" transform="translate(33,45)"/>
<path d="M0 0 C8.15841584 4.31683168 8.15841584 4.31683168 10 8 C11.07985481 18.44373866 11.07985481 18.44373866 7.875 23.0625 C-1.01804511 29.0556391 -1.01804511 29.0556391 -7 28 C-15.24742268 23.50515464 -15.24742268 23.50515464 -17 20 C-18.08387097 9.51741935 -18.08387097 9.51741935 -14.8125 4.9375 C-13.884375 4.298125 -12.95625 3.65875 -12 3 C-10.824375 2.1028125 -10.824375 2.1028125 -9.625 1.1875 C-6.00669139 -0.44935389 -3.95479765 -0.59321965 0 0 Z M-9 7 C-9 7.66 -9 8.32 -9 9 C-6.51229865 10.56633048 -5.34447796 11.04100928 -2.375 10.6875 C-0.01059813 10.08066352 -0.01059813 10.08066352 2 9 C1.67 8.01 1.34 7.02 1 6 C-4.28199593 4.80011955 -4.28199593 4.80011955 -9 7 Z M-12 13 C-12 14.98 -12 16.96 -12 19 C-10.02 19.99 -8.04 20.98 -6 22 C-5.66602213 19.12586875 -5.66602213 19.12586875 -6 16 C-8.04040776 13.95959224 -9.08325244 13 -12 13 Z M0.875 14.125 C-1.34224813 15.93621543 -1.34224813 15.93621543 -1.25 19.1875 C-1.1675 20.115625 -1.085 21.04375 -1 22 C0.98 21.01 2.96 20.02 5 19 C5 17.02 5 15.04 5 13 C2.8938588 12.84403743 2.8938588 12.84403743 0.875 14.125 Z " fill="#707070" transform="translate(61,16)"/>
<path d="M0 0 C0.99 0.33 1.98 0.66 3 1 C3.49613742 6.95364908 2.39578225 11.04174126 -1 16 C-4.27922248 19.47211792 -8.11542509 22.83850835 -13.0234375 23.11328125 C-15.01595523 23.12376819 -17.00856072 23.06638131 -19 23 C-19.75 21.3125 -19.75 21.3125 -20 19 C-18.0625 16.25 -18.0625 16.25 -16 14 C-14.68 14.33 -13.36 14.66 -12 15 C-12 15.66 -12 16.32 -12 17 C-7.26407409 14.26368725 -4.95264707 12.13854491 -3 7 C-2.66055205 5.00102872 -2.32578384 3.00124361 -2 1 C-1.34 0.67 -0.68 0.34 0 0 Z " fill="#727272" transform="translate(68,49)"/>
<path d="M0 0 C0.33 0.99 0.66 1.98 1 3 C-0.9375 6.1875 -0.9375 6.1875 -3 9 C-4.32 8.67 -5.64 8.34 -7 8 C-7 7.34 -7 6.68 -7 6 C-14.06161201 10.23696721 -15.99420246 14.13110195 -18 22 C-19.32 22 -20.64 22 -22 22 C-22.60888774 15.18045726 -21.32669244 11.31970382 -17 6 C-14.4375 3.625 -14.4375 3.625 -12 2 C-11.401875 1.5875 -10.80375 1.175 -10.1875 0.75 C-6.77955812 -0.41843722 -3.58866602 -0.1196222 0 0 Z " fill="#6F6F6F" transform="translate(37,16)"/>
<path d="M0 0 C1.65 0.33 3.3 0.66 5 1 C6.2380014 4.57644848 5.74926071 7.33694766 5 11 C4.34 11 3.68 11 3 11 C1.37485532 12.45833358 1.37485532 12.45833358 0 14 C1.98 14.66 3.96 15.32 6 16 C6 16.33 6 16.66 6 17 C1.02771781 17.62153527 -2.33308699 16.46427754 -6.4296875 13.77734375 C-8.54245688 11.38602518 -8.50894148 9.83937298 -8.5 6.6875 C-8.37196528 5.12136107 -8.21756982 3.55622858 -8 2 C-7.34 1.67 -6.68 1.34 -6 1 C-5.773125 2.093125 -5.54625 3.18625 -5.3125 4.3125 C-4.34252805 8.12488211 -4.34252805 8.12488211 -1.375 9.9375 C-0.59125 10.288125 0.1925 10.63875 1 11 C0.67 7.37 0.34 3.74 0 0 Z " fill="#727272" transform="translate(25,55)"/>
<path d="M0 0 C0 1.65 0 3.3 0 5 C-3 5 -3 5 -5 4 C-5.66 5.32 -6.32 6.64 -7 8 C-7.33 6.35 -7.66 4.7 -8 3 C-8.33 5.31 -8.66 7.62 -9 10 C-9.33 10 -9.66 10 -10 10 C-10 6.37 -10 2.74 -10 -1 C-5.07577115 -1.98484577 -4.18645898 -2.03342293 0 0 Z " fill="#6A6A6A" transform="translate(26,54)"/>
<path d="M0 0 C0.99 0.33 1.98 0.66 3 1 C3.31563182 6.26053037 2.66590937 9.44573816 0 14 C-0.12375 13.360625 -0.2475 12.72125 -0.375 12.0625 C-0.58125 11.381875 -0.7875 10.70125 -1 10 C-1.66 9.67 -2.32 9.34 -3 9 C-2.4140625 2.84765625 -2.4140625 2.84765625 -2 1 C-1.34 0.67 -0.68 0.34 0 0 Z " fill="#6A6A6A" transform="translate(68,49)"/>
<path d="M0 0 C0.33 0 0.66 0 1 0 C1 2.97 1 5.94 1 9 C1.66 9 2.32 9 3 9 C3 7.02 3 5.04 3 3 C3.66 3.33 4.32 3.66 5 4 C4.979375 4.928125 4.95875 5.85625 4.9375 6.8125 C4.84230396 10.02286011 4.84230396 10.02286011 6 13 C5.01 14.485 5.01 14.485 4 16 C2.015625 14.91796875 2.015625 14.91796875 0 13 C-0.390625 9.86328125 -0.390625 9.86328125 -0.25 6.3125 C-0.21390625 5.13300781 -0.1778125 3.95351563 -0.140625 2.73828125 C-0.09421875 1.83464844 -0.0478125 0.93101563 0 0 Z " fill="#6A6A6A" transform="translate(45,25)"/>
<path d="M0 0 C2.475 0.495 2.475 0.495 5 1 C6.2380014 4.57644848 5.74926071 7.33694766 5 11 C4.34 11 3.68 11 3 11 C2.67 11.66 2.34 12.32 2 13 C1.34 12.67 0.68 12.34 0 12 C0 8.04 0 4.08 0 0 Z " fill="#787878" transform="translate(25,55)"/>
<path d="M0 0 C0.33 0.99 0.66 1.98 1 3 C-0.4375 5.1875 -0.4375 5.1875 -2 7 C-3.32 6.67 -4.64 6.34 -6 6 C-6 5.34 -6 4.68 -6 4 C-6.99 3.67 -7.98 3.34 -9 3 C-5.55930376 0.70620251 -4.27709699 0 0 0 Z " fill="#757575" transform="translate(36,18)"/>
<path d="M0 0 C6.75 0.75 6.75 0.75 9 3 C7.68 4.32 6.36 5.64 5 7 C4.34 6.34 3.68 5.68 3 5 C1.68 5 0.36 5 -1 5 C-0.67 3.35 -0.34 1.7 0 0 Z " fill="#656565" transform="translate(26,44)"/>
<path d="M0 0 C0 1.32 0 2.64 0 4 C-0.33 3.34 -0.66 2.68 -1 2 C-5.455 3.485 -5.455 3.485 -10 5 C-10 3.68 -10 2.36 -10 1 C-6.78548731 -0.60725635 -3.56387464 -0.05748185 0 0 Z " fill="#737373" transform="translate(37,16)"/>
<path d="M0 0 C0.99 0 1.98 0 3 0 C3 3 3 3 1.125 5.1875 C-1 7 -1 7 -3 7 C-2.38722388 4.03824877 -1.74627478 2.61941217 0 0 Z " fill="#696969" transform="translate(51,64)"/>
<path d="M0 0 C2.475 0.99 2.475 0.99 5 2 C4.01 2.33 3.02 2.66 2 3 C1.67 3.99 1.34 4.98 1 6 C1 5.34 1 4.68 1 4 C0.01 3.67 -0.98 3.34 -2 3 C-1.34 2.01 -0.68 1.02 0 0 Z " fill="#757575" transform="translate(34,47)"/>
<path d="M0 0 C2.64 0 5.28 0 8 0 C8 1.32 8 2.64 8 4 C7.67 3.34 7.34 2.68 7 2 C4.67843403 1.59270772 2.3431213 1.25561323 0 1 C0 0.67 0 0.34 0 0 Z " fill="#616161" transform="translate(29,16)"/>
</svg>
