<?xml version="1.0" standalone="no"?>
<!DOCTYPE svg PUBLIC "-//W3C//DTD SVG 20010904//EN"
 "http://www.w3.org/TR/2001/REC-SVG-20010904/DTD/svg10.dtd">
<svg version="1.0" xmlns="http://www.w3.org/2000/svg"
 width="84.000000pt" height="88.000000pt" viewBox="0 0 84.000000 88.000000"
 preserveAspectRatio="xMidYMid meet">

<g transform="translate(0.000000,88.000000) scale(0.100000,-0.100000)"
fill="#000000" stroke="none">
<path d="M384 669 c-143 -76 -154 -91 -154 -222 0 -109 17 -136 124 -196 104
-59 134 -58 243 4 101 58 113 78 113 202 0 117 -13 137 -123 197 -47 26 -97
46 -114 46 -17 0 -57 -14 -89 -31z m196 -41 c41 -24 75 -48 77 -54 4 -11 -166
-114 -187 -114 -20 0 -190 105 -187 115 2 5 41 32 88 58 99 56 106 56 209 -5z
m-214 -143 l94 -56 0 -99 c0 -55 -4 -100 -9 -100 -18 0 -156 83 -173 104 -14
16 -18 41 -18 114 0 50 3 92 6 92 3 0 48 -25 100 -55z m322 -31 c3 -103 -11
-126 -112 -181 -42 -24 -81 -43 -86 -43 -6 0 -10 40 -10 99 l0 100 93 55 c50
30 97 54 102 52 6 -1 11 -38 13 -82z"/>
</g>
</svg>
