<?xml version="1.0" standalone="no"?>
<!DOCTYPE svg PUBLIC "-//W3C//DTD SVG 20010904//EN"
 "http://www.w3.org/TR/2001/REC-SVG-20010904/DTD/svg10.dtd">
<svg version="1.0" xmlns="http://www.w3.org/2000/svg"
 width="84.000000pt" height="88.000000pt" viewBox="0 0 84.000000 88.000000"
 preserveAspectRatio="xMidYMid meet">

<g transform="translate(0.000000,88.000000) scale(0.100000,-0.100000)"
fill="#000000" stroke="none">
<path d="M329 712 c-18 -16 -38 -50 -49 -82 -15 -44 -24 -56 -46 -62 -14 -4
-38 -17 -52 -30 -24 -23 -24 -25 -18 -133 13 -208 28 -238 131 -250 95 -12
279 -1 309 18 38 25 45 46 61 177 19 170 10 194 -87 224 -10 3 -19 21 -23 48
-5 31 -18 54 -45 80 -35 35 -42 38 -94 38 -47 0 -61 -4 -87 -28z m139 -12 c18
-11 40 -36 48 -55 27 -65 26 -65 -101 -65 -128 0 -126 -1 -95 68 13 29 30 47
52 57 44 19 57 18 96 -5z m127 -164 c54 -23 60 -46 42 -181 -13 -103 -18 -120
-41 -144 -26 -26 -27 -26 -181 -26 -153 0 -155 0 -181 26 -23 23 -28 41 -41
145 -16 135 -11 157 40 179 46 20 314 21 362 1z"/>
<path d="M349 473 c-107 -66 -59 -233 66 -233 126 0 173 169 65 234 -36 20
-97 20 -131 -1z m132 -42 c21 -22 29 -39 29 -66 0 -51 -44 -95 -95 -95 -51 0
-95 44 -95 95 0 27 8 44 29 66 22 21 39 29 66 29 27 0 44 -8 66 -29z"/>
<path d="M410 396 c0 -14 -10 -32 -22 -40 -16 -12 -19 -19 -11 -27 26 -26 75
35 59 76 -9 24 -26 17 -26 -9z"/>
</g>
</svg>
