<?xml version="1.0" standalone="no"?>
<!DOCTYPE svg PUBLIC "-//W3C//DTD SVG 20010904//EN"
 "http://www.w3.org/TR/2001/REC-SVG-20010904/DTD/svg10.dtd">
<svg version="1.0" xmlns="http://www.w3.org/2000/svg"
 width="84.000000pt" height="88.000000pt" viewBox="0 0 84.000000 88.000000"
 preserveAspectRatio="xMidYMid meet">

<g transform="translate(0.000000,88.000000) scale(0.100000,-0.100000)"
fill="#000000" stroke="none">
<path d="M230 697 c-19 -7 -44 -27 -57 -46 -21 -31 -23 -45 -23 -167 0 -79 5
-143 12 -158 16 -36 51 -56 111 -63 43 -5 57 -12 80 -39 39 -47 79 -47 109 0
19 29 29 35 72 40 59 7 94 29 119 77 15 28 17 54 15 156 -3 104 -6 126 -24
150 -39 54 -74 63 -234 62 -85 0 -159 -5 -180 -12z m376 -51 l34 -34 0 -127 0
-127 -34 -34 c-29 -29 -41 -34 -79 -34 -41 0 -49 -4 -81 -43 l-35 -42 -40 43
c-35 38 -43 42 -86 42 -59 0 -83 13 -101 55 -19 46 -19 224 0 269 26 61 42 66
224 66 l164 0 34 -34z"/>
<path d="M292 473 c4 -21 33 -25 33 -3 0 8 -8 16 -18 18 -14 3 -18 -1 -15 -15z"/>
<path d="M392 473 c4 -21 33 -25 33 -3 0 8 -8 16 -18 18 -14 3 -18 -1 -15 -15z"/>
<path d="M492 473 c2 -10 10 -18 18 -18 22 0 18 29 -3 33 -14 3 -18 -1 -15
-15z"/>
</g>
</svg>
