<?xml version="1.0" standalone="no"?>
<!DOCTYPE svg PUBLIC "-//W3C//DTD SVG 20010904//EN"
 "http://www.w3.org/TR/2001/REC-SVG-20010904/DTD/svg10.dtd">
<svg version="1.0" xmlns="http://www.w3.org/2000/svg"
 width="84.000000pt" height="88.000000pt" viewBox="0 0 84.000000 88.000000"
 preserveAspectRatio="xMidYMid meet">

<g transform="translate(0.000000,88.000000) scale(0.100000,-0.100000)"
fill="#000000" stroke="none">
<path d="M327 683 c-59 -20 -131 -82 -159 -137 -30 -58 -35 -159 -13 -227 59
-176 298 -238 443 -113 61 52 92 122 92 208 0 91 -29 156 -95 214 -77 68 -171
87 -268 55z m200 -42 c89 -45 153 -163 139 -256 -20 -133 -160 -239 -288 -218
-65 10 -139 62 -174 121 -42 69 -50 127 -29 198 20 69 89 143 156 167 56 21
142 16 196 -12z"/>
<path d="M407 533 c-4 -3 -7 -39 -7 -80 0 -58 3 -73 15 -73 12 0 15 16 15 80
0 73 -6 91 -23 73z"/>
<path d="M395 320 c-4 -7 -3 -16 3 -22 14 -14 45 -2 40 15 -6 16 -34 21 -43 7z"/>
</g>
</svg>
