<?xml version="1.0" standalone="no"?>
<!DOCTYPE svg PUBLIC "-//W3C//DTD SVG 20010904//EN"
 "http://www.w3.org/TR/2001/REC-SVG-20010904/DTD/svg10.dtd">
<svg version="1.0" xmlns="http://www.w3.org/2000/svg"
 width="84.000000pt" height="88.000000pt" viewBox="0 0 84.000000 88.000000"
 preserveAspectRatio="xMidYMid meet">

<g transform="translate(0.000000,88.000000) scale(0.100000,-0.100000)"
fill="#000000" stroke="none">
<path d="M281 654 l-43 -27 6 -52 c6 -56 0 -65 -44 -65 -26 0 -50 -38 -50 -80
0 -47 18 -70 60 -79 33 -7 35 -9 32 -47 -4 -57 4 -77 37 -97 43 -25 85 -22
105 8 21 32 41 32 62 0 22 -33 67 -33 111 1 35 26 45 68 21 92 -16 16 7 42 38
42 40 0 55 26 52 88 -3 57 -6 62 -63 79 -22 7 -29 14 -27 29 15 86 16 82 -19
104 -59 36 -77 36 -114 0 l-34 -33 -30 31 c-35 39 -44 39 -100 6z m91 -29 c11
-14 30 -25 43 -25 13 0 32 11 43 25 25 31 49 32 87 1 28 -23 29 -26 18 -57
-11 -27 -10 -37 2 -56 9 -13 25 -23 39 -23 33 0 48 -22 44 -66 -3 -32 -8 -39
-35 -48 -55 -19 -67 -38 -53 -82 12 -36 12 -39 -16 -61 -37 -29 -55 -29 -82 2
-29 33 -65 32 -97 -2 l-25 -28 -38 20 c-36 19 -37 22 -37 74 0 56 -4 62 -57
81 -25 8 -28 14 -28 55 0 41 2 45 28 50 51 11 57 19 57 75 0 42 4 55 24 71 32
26 59 24 83 -6z"/>
<path d="M374 509 c-45 -23 -57 -90 -23 -133 29 -37 99 -37 128 0 12 15 21 39
21 55 0 58 -75 104 -126 78z m101 -59 c9 -29 -2 -55 -29 -70 -53 -28 -112 22
-88 75 16 35 50 46 84 29 15 -8 29 -23 33 -34z"/>
</g>
</svg>
