<?xml version="1.0" encoding="UTF-8"?>
<svg version="1.1" xmlns="http://www.w3.org/2000/svg" width="84" height="88">
<path d="M0 0 C0.75539063 -0.01224609 1.51078125 -0.02449219 2.2890625 -0.03710938 C6.47476647 -0.04808587 9.88457395 0.07913251 13.625 2.1875 C16.78378475 6.92567712 15.9588664 12.00988847 15.94067383 17.58422852 C15.93751611 19.61464222 15.96097175 21.64359476 15.98632812 23.67382812 C15.98697266 24.95580078 15.98761719 26.23777344 15.98828125 27.55859375 C15.99126221 28.73349365 15.99424316 29.90839355 15.99731445 31.11889648 C15.5859924 34.50899938 15.17273906 35.92078926 12.625 38.1875 C10.12890625 38.68920898 10.12890625 38.68920898 7.1875 38.68359375 C6.12789062 38.68423828 5.06828125 38.68488281 3.9765625 38.68554688 C2.87054687 38.66556641 1.76453125 38.64558594 0.625 38.625 C-0.48101562 38.63208984 -1.58703125 38.63917969 -2.7265625 38.64648438 C-10.71689651 38.58330047 -10.71689651 38.58330047 -13.18994141 37.09594727 C-15.00684466 34.16996195 -14.76429178 31.63489391 -14.7734375 28.21875 C-14.77630768 27.54203247 -14.77917786 26.86531494 -14.78213501 26.16809082 C-14.78417397 24.73916791 -14.77865569 23.31021698 -14.76611328 21.88134766 C-14.75005511 19.69500275 -14.76596534 17.51050621 -14.78515625 15.32421875 C-14.78317379 13.93489176 -14.77933004 12.54556591 -14.7734375 11.15625 C-14.77005371 9.89232422 -14.76666992 8.62839844 -14.76318359 7.32617188 C-14.375 4.1875 -14.375 4.1875 -13.03759766 2.31445312 C-9.02050407 -0.40844027 -4.64929973 0.00392677 0 0 Z M-9.375 6.1875 C-9.375 15.0975 -9.375 24.0075 -9.375 33.1875 C-4.7034375 33.2184375 -4.7034375 33.2184375 0.0625 33.25 C1.04532959 33.259104 2.02815918 33.26820801 3.04077148 33.27758789 C3.80977783 33.28008545 4.57878418 33.28258301 5.37109375 33.28515625 C6.16185303 33.29039307 6.9526123 33.29562988 7.76733398 33.30102539 C9.64092689 33.39245909 9.64092689 33.39245909 10.625 32.1875 C10.72459621 30.34590977 10.75580411 28.50053033 10.7578125 26.65625 C10.75910156 25.53605469 10.76039062 24.41585937 10.76171875 23.26171875 C10.75591797 21.49248047 10.75591797 21.49248047 10.75 19.6875 C10.75386719 18.50800781 10.75773437 17.32851563 10.76171875 16.11328125 C10.75978516 14.43298828 10.75978516 14.43298828 10.7578125 12.71875 C10.75668457 11.68298828 10.75555664 10.64722656 10.75439453 9.58007812 C10.89465153 7.23452177 10.89465153 7.23452177 9.625 6.1875 C8.20929877 6.10098389 6.789405 6.08045096 5.37109375 6.08984375 C4.6020874 6.09234131 3.83308105 6.09483887 3.04077148 6.09741211 C2.05794189 6.10651611 1.0751123 6.11562012 0.0625 6.125 C-3.051875 6.145625 -6.16625 6.16625 -9.375 6.1875 Z " fill="#32A87D" transform="translate(24.375,37.8125)"/>
<path d="M0 0 C1.05960938 -0.00064453 2.11921875 -0.00128906 3.2109375 -0.00195312 C4.86996094 0.02801758 4.86996094 0.02801758 6.5625 0.05859375 C7.66851562 0.05150391 8.77453125 0.04441406 9.9140625 0.03710938 C17.90439651 0.10029328 17.90439651 0.10029328 20.37744141 1.58764648 C22.19434466 4.5136318 21.95179178 7.04869984 21.9609375 10.46484375 C21.96380768 11.14156128 21.96667786 11.81827881 21.96963501 12.51550293 C21.97167397 13.94442584 21.96615569 15.37337677 21.95361328 16.80224609 C21.93755511 18.988591 21.95346534 21.17308754 21.97265625 23.359375 C21.97067379 24.74870199 21.96683004 26.13802784 21.9609375 27.52734375 C21.95755371 28.79126953 21.95416992 30.05519531 21.95068359 31.35742188 C21.5625 34.49609375 21.5625 34.49609375 20.22509766 36.36914062 C16.20800407 39.09203402 11.83679973 38.67966698 7.1875 38.68359375 C6.43210937 38.69583984 5.67671875 38.70808594 4.8984375 38.72070312 C0.71273353 38.73167962 -2.69707395 38.60446124 -6.4375 36.49609375 C-9.59628475 31.75791663 -8.7713664 26.67370528 -8.75317383 21.09936523 C-8.75001611 19.06895153 -8.77347175 17.03999899 -8.79882812 15.00976562 C-8.79947266 13.72779297 -8.80011719 12.44582031 -8.80078125 11.125 C-8.80376221 9.9501001 -8.80674316 8.7752002 -8.80981445 7.56469727 C-8.08532053 1.59344215 -5.85929401 -0.01118557 0 0 Z M-3.4375 6.49609375 C-3.53709621 8.33768398 -3.56830411 10.18306342 -3.5703125 12.02734375 C-3.57160156 13.14753906 -3.57289062 14.26773437 -3.57421875 15.421875 C-3.57035156 16.60136719 -3.56648438 17.78085937 -3.5625 18.99609375 C-3.56636719 20.17558594 -3.57023437 21.35507812 -3.57421875 22.5703125 C-3.57292969 23.69050781 -3.57164063 24.81070313 -3.5703125 25.96484375 C-3.56918457 27.00060547 -3.56805664 28.03636719 -3.56689453 29.10351562 C-3.70715153 31.44907198 -3.70715153 31.44907198 -2.4375 32.49609375 C-1.02179877 32.58260986 0.398095 32.60314279 1.81640625 32.59375 C2.5854126 32.59125244 3.35441895 32.58875488 4.14672852 32.58618164 C5.12955811 32.57707764 6.1123877 32.56797363 7.125 32.55859375 C10.239375 32.53796875 13.35375 32.51734375 16.5625 32.49609375 C16.5625 23.58609375 16.5625 14.67609375 16.5625 5.49609375 C13.448125 5.47546875 10.33375 5.45484375 7.125 5.43359375 C6.14217041 5.42448975 5.15934082 5.41538574 4.14672852 5.40600586 C3.37772217 5.4035083 2.60871582 5.40101074 1.81640625 5.3984375 C0.63026733 5.39058228 0.63026733 5.39058228 -0.57983398 5.38256836 C-2.45342689 5.29113466 -2.45342689 5.29113466 -3.4375 6.49609375 Z " fill="#30A77C" transform="translate(52.4375,11.50390625)"/>
<path d="M0 0 C0.75087891 -0.020625 1.50175781 -0.04125 2.27539062 -0.0625 C6.89899717 -0.09503197 9.75519658 0.34500549 13.5625 3.25 C15.60475211 5.29225211 14.79305064 9.32915477 14.8125 12.125 C14.833125 12.85847656 14.85375 13.59195313 14.875 14.34765625 C14.91429683 19.74114582 14.91429683 19.74114582 13.38183594 21.95776367 C9.52577587 24.69664262 4.11566883 23.71668698 -0.4375 23.6875 C-1.54351562 23.70748047 -2.64953125 23.72746094 -3.7890625 23.74804688 C-5.37847656 23.74708008 -5.37847656 23.74708008 -7 23.74609375 C-7.97066406 23.74794678 -8.94132812 23.7497998 -9.94140625 23.75170898 C-12.4375 23.25 -12.4375 23.25 -14.25244141 21.42602539 C-15.94466671 18.31873159 -15.83484244 15.76521059 -15.8125 12.25 C-15.82023437 11.033125 -15.82796875 9.81625 -15.8359375 8.5625 C-15.414457 5.05842682 -14.98546107 3.648081 -12.4375 1.25 C-8.35824617 -0.0400433 -4.24033637 0.02896899 0 0 Z M-10.4375 7.25 C-10.53573937 8.91429051 -10.56723631 10.58281931 -10.5625 12.25 C-10.56507812 13.1575 -10.56765625 14.065 -10.5703125 15 C-10.68923779 17.21966611 -10.68923779 17.21966611 -9.4375 18.25 C-8.02179877 18.33651611 -6.601905 18.35704904 -5.18359375 18.34765625 C-4.32958984 18.34443359 -3.47558594 18.34121094 -2.59570312 18.33789062 C-1.24895508 18.32532227 -1.24895508 18.32532227 0.125 18.3125 C1.02669922 18.30798828 1.92839844 18.30347656 2.85742188 18.29882812 C5.09247589 18.28700244 7.32749602 18.26906638 9.5625 18.25 C9.5625 14.29 9.5625 10.33 9.5625 6.25 C6.41661056 6.22316303 3.27094729 6.20324098 0.125 6.1875 C-0.77283203 6.17912109 -1.67066406 6.17074219 -2.59570312 6.16210938 C-3.44970703 6.15888672 -4.30371094 6.15566406 -5.18359375 6.15234375 C-6.36973267 6.14448853 -6.36973267 6.14448853 -7.57983398 6.13647461 C-9.45342689 6.04504091 -9.45342689 6.04504091 -10.4375 7.25 Z " fill="#33A87E" transform="translate(59.4375,52.75)"/>
<path d="M0 0 C1.10601563 -0.01998047 2.21203125 -0.03996094 3.3515625 -0.06054688 C4.94097656 -0.05958008 4.94097656 -0.05958008 6.5625 -0.05859375 C7.53316406 -0.06044678 8.50382812 -0.0622998 9.50390625 -0.06420898 C12 0.4375 12 0.4375 13.81494141 2.26147461 C15.50716671 5.36876841 15.39734244 7.92228941 15.375 11.4375 C15.38273437 12.654375 15.39046875 13.87125 15.3984375 15.125 C14.976957 18.62907318 14.54796107 20.039419 12 22.4375 C7.92074617 23.7275433 3.80283637 23.65853101 -0.4375 23.6875 C-1.56381836 23.7184375 -1.56381836 23.7184375 -2.71289062 23.75 C-7.33649717 23.78253197 -10.19269658 23.34249451 -14 20.4375 C-16.04225211 18.39524789 -15.23055064 14.35834523 -15.25 11.5625 C-15.270625 10.82902344 -15.29125 10.09554688 -15.3125 9.33984375 C-15.35179683 3.94635418 -15.35179683 3.94635418 -13.81933594 1.72973633 C-9.96327587 -1.00914262 -4.55316883 -0.02918698 0 0 Z M-10 5.4375 C-10 9.3975 -10 13.3575 -10 17.4375 C-6.85411056 17.46433697 -3.70844729 17.48425902 -0.5625 17.5 C0.33533203 17.50837891 1.23316406 17.51675781 2.15820312 17.52539062 C3.43920898 17.53022461 3.43920898 17.53022461 4.74609375 17.53515625 C5.53685303 17.54039307 6.3276123 17.54562988 7.14233398 17.55102539 C9.01592689 17.64245909 9.01592689 17.64245909 10 16.4375 C10.09823937 14.77320949 10.12973631 13.10468069 10.125 11.4375 C10.12757812 10.53 10.13015625 9.6225 10.1328125 8.6875 C10.25173779 6.46783389 10.25173779 6.46783389 9 5.4375 C7.58429877 5.35098389 6.164405 5.33045096 4.74609375 5.33984375 C3.46508789 5.34467773 3.46508789 5.34467773 2.15820312 5.34960938 C1.26037109 5.35798828 0.36253906 5.36636719 -0.5625 5.375 C-1.46419922 5.37951172 -2.36589844 5.38402344 -3.29492188 5.38867188 C-5.52997589 5.40049756 -7.76499602 5.41843362 -10 5.4375 Z " fill="#33A87E" transform="translate(25,11.5625)"/>
<path d="M0 0 C0.99 0.33 1.98 0.66 3 1 C2.02885254 1.78842285 2.02885254 1.78842285 1.03808594 2.59277344 C-1.59709742 5.70524444 -1.53591923 7.47555766 -1.609375 11.515625 C-1.64160156 12.76601563 -1.67382812 14.01640625 -1.70703125 15.3046875 C-1.72121094 16.60664063 -1.73539063 17.90859375 -1.75 19.25 C-1.77964844 20.56742188 -1.80929688 21.88484375 -1.83984375 23.2421875 C-1.91055388 26.49485343 -1.96324786 29.74680193 -2 33 C-2.33 33 -2.66 33 -3 33 C-3.07431978 28.94328317 -3.12868133 24.88683154 -3.16479492 20.82958984 C-3.17985422 19.45028782 -3.20030613 18.07103347 -3.22631836 16.69189453 C-3.26282415 14.70626597 -3.27814853 12.72028382 -3.29296875 10.734375 C-3.3086792 9.54038086 -3.32438965 8.34638672 -3.34057617 7.11621094 C-2.97432368 3.76506629 -2.2746046 2.42414608 0 0 Z " fill="#4FB592" transform="translate(47,12)"/>
<path d="M0 0 C0.99 0.495 0.99 0.495 2 1 C1.67 8.26 1.34 15.52 1 23 C0.67 23 0.34 23 0 23 C0 15.41 0 7.82 0 0 Z " fill="#FFFFFF" transform="translate(0,65)"/>
</svg>
